<svg xmlns="http://www.w3.org/2000/svg" width="27.033" height="27.032" viewBox="0 0 27.033 27.032"><path d="M26.849,5.312l0-.009a3.956,3.956,0,0,0-.479-1L24.2,1.058A2.371,2.371,0,0,0,22.225,0H4.808A2.371,2.371,0,0,0,2.831,1.058L.665,4.306a3.957,3.957,0,0,0-.479,1l0,.009A3.954,3.954,0,0,0,0,6.5V24.657a2.379,2.379,0,0,0,2.376,2.376H24.657a2.379,2.379,0,0,0,2.376-2.376V6.5A3.955,3.955,0,0,0,26.849,5.312ZM14.308,1.584h7.917a.791.791,0,0,1,.659.353l1.877,2.815H14.308Zm-10.16.353a.79.79,0,0,1,.659-.353h7.917V4.752H2.272Zm21.3,22.72a.793.793,0,0,1-.792.792H2.376a.793.793,0,0,1-.792-.792c0-19.3,0-18.192.006-18.321H25.443C25.452,6.464,25.449,5.339,25.449,24.657Z" fill="#ff4a57"/><g transform="translate(7.92 9.504)"><path d="M158.817,180h-6.441a2.376,2.376,0,0,0,0,4.752h6.441a2.376,2.376,0,0,0,0-4.752Zm0,3.168h-6.441a.792.792,0,0,1,0-1.584h6.441a.792.792,0,0,1,0,1.584Z" transform="translate(-150 -180)" fill="#ff4a57"/></g></svg>