<svg xmlns="http://www.w3.org/2000/svg" width="39.838" height="27.34" viewBox="0 0 39.838 27.34"><g transform="translate(0 -0.039)"><path d="M39.735,16.657l-2.017-3.085a4.812,4.812,0,0,0-4.048-2.178H28.456v-3A3.326,3.326,0,0,0,25.133,5.07H15.371a6.2,6.2,0,1,0-9.517,6.323H.632a.632.632,0,1,0,0,1.265H6.956v1.265H4.426a.632.632,0,0,0,0,1.265h2.53v1.265H.632a.632.632,0,1,0,0,1.265H6.956v2.8a3.172,3.172,0,0,0-1.9,2.9v.624a.632.632,0,0,0,.632.632H11.3a3.492,3.492,0,0,0,6.8,0H30.27a3.492,3.492,0,0,0,6.8,0h2.131a.632.632,0,0,0,.632-.632V17a.633.633,0,0,0-.1-.346ZM4.352,6.237a4.934,4.934,0,1,1,4.934,4.934A4.939,4.939,0,0,1,4.352,6.237ZM8.22,17.718H9.485a.632.632,0,0,0,0-1.265H8.22V15.188h4.427a.632.632,0,0,0,0-1.265H8.22V12.659h8.221a.632.632,0,0,0,0-1.265H12.718A6.2,6.2,0,0,0,15.48,6.335h9.654a2.06,2.06,0,0,1,2.057,2.058V20.247H8.22Zm18.971,5.691H18.162a3.481,3.481,0,0,0-.9-1.9h9.928Zm-18.963-1.9h3.913a3.481,3.481,0,0,0-.9,1.9H6.323a1.908,1.908,0,0,1,1.905-1.9Zm6.474,4.6a2.231,2.231,0,1,1,2.231-2.231A2.234,2.234,0,0,1,14.7,26.114Zm18.971,0A2.231,2.231,0,1,1,35.9,23.883,2.234,2.234,0,0,1,33.673,26.114Zm4.9-2.705H37.133a3.492,3.492,0,0,0-6.92,0H28.456V12.659h5.215a3.553,3.553,0,0,1,2.989,1.6l1.913,2.928Zm0,0" fill="#ff4a57"/><path d="M354.421,247.319a1.034,1.034,0,1,1-1.034-1.034A1.034,1.034,0,0,1,354.421,247.319Zm0,0" transform="translate(-319.714 -223.436)" fill="#ff4a57"/><path d="M149.624,247.319a1.034,1.034,0,1,1-1.034-1.034A1.034,1.034,0,0,1,149.624,247.319Zm0,0" transform="translate(-133.887 -223.436)" fill="#ff4a57"/><path d="M83.005,33.66V30.894a.632.632,0,0,0-1.265,0v2.56l-1.291,1.77a.632.632,0,1,0,1.022.745l1.412-1.937a.633.633,0,0,0,.121-.372Zm0,0" transform="translate(-72.888 -27.423)" fill="#ff4a57"/><path d="M343.174,143.1h-1.21a.632.632,0,0,0-.633.632v4.426a.632.632,0,0,0,.633.632h4.256a1.1,1.1,0,0,0,.954-1.643l-1.477-2.585a2.913,2.913,0,0,0-2.523-1.464Zm-.577,4.427V144.37h.577a1.644,1.644,0,0,1,1.425.827l1.334,2.335Zm0,0" transform="translate(-309.715 -129.814)" fill="#ff4a57"/></g></svg>