<svg xmlns="http://www.w3.org/2000/svg" width="27.178" height="27.177" viewBox="0 0 27.178 27.177"><g transform="translate(-1 -1)"><path d="M26.482,11.324a3.052,3.052,0,0,0,1.7-2.744V6.26A3.072,3.072,0,0,0,25.3,3.2L24.254,2.155A3.918,3.918,0,0,0,21.465,1h-2.02a3.1,3.1,0,0,0-1.938,5.526l.746.6A20.271,20.271,0,0,0,18.1,9.329v.438h.877v.306A2.325,2.325,0,0,0,21.3,12.4h.119c.063,0,.124-.014.187-.018v1.588l-.814.163a.878.878,0,0,0-.493.289l-.526.614a8.751,8.751,0,0,0-1.328,2.1L15.9,19.667V18.014a6.057,6.057,0,0,0-6.056-6.056H9.767v-.453a2.655,2.655,0,0,0,2.284-1.667A4.8,4.8,0,0,0,12.4,8.044V6.26a2.172,2.172,0,0,0-.183-.871,3.393,3.393,0,0,0,1.059-2.454A1.935,1.935,0,0,0,11.339,1H7.81a4.187,4.187,0,0,0-2.99,1.258A4.476,4.476,0,0,0,3.63,5.383,3.721,3.721,0,0,0,4.956,8.236,2.535,2.535,0,0,0,5.693,9.82l.128.128v2.016A4.947,4.947,0,0,0,1,16.912v3.813a4.814,4.814,0,0,0,1.753,3.717v3.735h10.52v-2.63h1.178a3.919,3.919,0,0,0,2.79-1.155l.416-.416v4.2h10.52V17.155a3.882,3.882,0,0,0-2.146-3.471l-.485-.242v-1.65ZM18.054,5.841a2.226,2.226,0,0,1,1.391-3.964h2.02a3.049,3.049,0,0,1,2.17.9l1.293,1.293h.181A2.194,2.194,0,0,1,27.3,6.26V8.58a2.179,2.179,0,0,1-1.212,1.96l-.875.437a2.382,2.382,0,0,1-.446-.9,3.466,3.466,0,0,1-.087-.513,1.939,1.939,0,0,0,.866-1.55A1.755,1.755,0,0,0,23.794,6.26h-.06a1.707,1.707,0,0,0-.537-.816,3.7,3.7,0,0,0-2.472-.938,4.974,4.974,0,0,0-1.949.484l-.192.1-.042.21c-.056.281-.1.553-.148.816Zm3.715,9.624h-.608v-.517l.961-.192Zm-.481,5.021-.55-.989.376-3.155h.574l.626,2.819A8.277,8.277,0,0,1,21.289,20.486Zm1.653-2.545-.44-1.981.711-1.422.812-.162-.758,2.654A8.426,8.426,0,0,1,22.942,17.942Zm-.463-5.711,1.4-.28-.172-.86-2.009.4a1.46,1.46,0,0,1-.284.028H21.3a1.448,1.448,0,0,1-1.448-1.448V8.89h-.864a23.212,23.212,0,0,1,.374-3.2,3.87,3.87,0,0,1,1.367-.308,2.83,2.83,0,0,1,1.893.719.755.755,0,0,1,.3.6v.438h.877a.878.878,0,0,1,.877.877,1.193,1.193,0,0,1-.634.923l-.242.121v.271a4.049,4.049,0,0,0,.123.955,3.277,3.277,0,0,0,.754,1.411v1.658l-2.192.438Zm-2.192,3.56v.088l-.275,2.311-.592-1.066A7.854,7.854,0,0,1,20.287,15.79Zm-5.26,2.224v2.53l-.235.235a1.325,1.325,0,0,1-.931.385h-.588v-2.63H12.4v2.63H8.89V19.936l2.786-6.767a5.178,5.178,0,0,1,3.351,4.845ZM13.274,23.4a1.269,1.269,0,0,1-1.259,1.268H10.644V22.041h1.318A1.331,1.331,0,0,1,13.274,23.4ZM9.058,12.835l-.438.877H7.846l-.438-.877Zm.562,3.025-.274-1.642.688-1.375a5.188,5.188,0,0,1,.793.087ZM6.428,12.835l.692,1.383L6.9,15.525,5.647,12.859c.1-.008.2-.024.307-.024Zm1.519,1.753h.572L8.987,17.4l-.562,1.365L7.558,16.92ZM11.52,8.044a3.93,3.93,0,0,1-.283,1.469,1.8,1.8,0,0,1-2.668.829l-.751-.5-.486.729.751.5a2.671,2.671,0,0,0,.807.357v.53H6.7V9.585L6.313,9.2a1.669,1.669,0,0,1-.491-1.187.439.439,0,0,1,.438-.438H6.7V6.26A1.317,1.317,0,0,1,8.014,4.945h2.192A1.317,1.317,0,0,1,11.52,6.26ZM5.2,7.243a2.824,2.824,0,0,1-.689-1.859A3.6,3.6,0,0,1,5.469,2.85,3.293,3.293,0,0,1,7.81,1.877h3.529A1.058,1.058,0,0,1,12.4,2.935a2.509,2.509,0,0,1-.7,1.729,2.177,2.177,0,0,0-1.491-.6H8.014A2.194,2.194,0,0,0,5.822,6.26v.513a1.32,1.32,0,0,0-.626.469ZM1.877,20.726V16.912a4.067,4.067,0,0,1,2.876-3.894l3.26,6.929v1.217H5.383v-2.63H4.507v2.63a.876.876,0,0,0,.874.877H9.767v2.631H5.822a3.95,3.95,0,0,1-3.945-3.945ZM12.4,27.3H3.63V25.015a4.785,4.785,0,0,0,2.192.532H12.4Zm4.224-3.529a3.048,3.048,0,0,1-2.17.9h-.726a2.19,2.19,0,0,0-.027-2.63h.164a2.21,2.21,0,0,0,1.551-.642l2.433-2.433a8.712,8.712,0,0,0-.189,1.773v2Zm1.913-3.034a7.885,7.885,0,0,1,.447-2.6l1.65,2.969c-.06.051-.117.1-.178.154l-.164.132V27.3H18.534Zm7.106-6.27A3.005,3.005,0,0,1,27.3,17.155V27.3h-2.63V20.287h-.877V27.3h-2.63V21.81a9.182,9.182,0,0,0,2.946-4.539l.882-3.088.055-.011Z" fill="#ff4a57"/><ellipse cx="0.5" rx="0.5" transform="translate(22.318 25.014)" fill="#ff4a57"/><circle cx="0.5" cy="0.5" r="0.5" transform="translate(22.318 23.014)" fill="#ff4a57"/></g></svg>