<svg xmlns="http://www.w3.org/2000/svg" width="27.138" height="27.14" viewBox="0 0 27.138 27.14"><g transform="translate(-0.018)"><g transform="translate(0.018)"><path d="M26.457,8.541a2.388,2.388,0,0,0-3.374,0l-2.392,2.394v-6.3a2.369,2.369,0,0,0-.7-1.687L17.743.7A2.37,2.37,0,0,0,16.057,0H2.4A2.388,2.388,0,0,0,.018,2.385V24.754A2.388,2.388,0,0,0,2.4,27.14h15.9a2.388,2.388,0,0,0,2.385-2.385v-7.07l5.766-5.771A2.384,2.384,0,0,0,26.457,8.541ZM15.92,1.59a.868.868,0,0,1,.7.233l2.249,2.249a.868.868,0,0,1,.233.7H15.92ZM19.1,24.754a.8.8,0,0,1-.8.8H2.4a.8.8,0,0,1-.8-.8V2.385a.8.8,0,0,1,.8-.8H14.33V5.566a.8.8,0,0,0,.8.8H19.1v6.166l-2.346,2.348L15.631,16a.8.8,0,0,0-.192.311l-1.124,3.373a.8.8,0,0,0,1.006,1.006l3.373-1.124A.794.794,0,0,0,19,19.372l.1-.1v5.479Zm-1.783-8.193,1.124,1.124-.43.43-1.687.562.562-1.687Zm2.249,0-1.124-1.124,3.822-3.825,1.124,1.124Zm5.766-5.771-.82.82-1.124-1.124.82-.821a.8.8,0,1,1,1.124,1.125Z" transform="translate(-0.018)" fill="#ff4a57"/></g><g transform="translate(3.198 7.951)"><path d="M71.945,150H60.813a.8.8,0,1,0,0,1.59H71.945a.8.8,0,0,0,0-1.59Z" transform="translate(-60.018 -150)" fill="#ff4a57"/></g><g transform="translate(3.198 11.132)"><path d="M68.764,210H60.813a.8.8,0,1,0,0,1.59h7.951a.8.8,0,0,0,0-1.59Z" transform="translate(-60.018 -210)" fill="#ff4a57"/></g><g transform="translate(3.198 14.312)"><path d="M68.764,270H60.813a.8.8,0,1,0,0,1.59h7.951a.8.8,0,1,0,0-1.59Z" transform="translate(-60.018 -270)" fill="#ff4a57"/></g><g transform="translate(3.198 17.492)"><path d="M68.764,330H60.813a.8.8,0,1,0,0,1.59h7.951a.8.8,0,0,0,0-1.59Z" transform="translate(-60.018 -330)" fill="#ff4a57"/></g><g transform="translate(9.559 22.369)"><path d="M185.584,422h-4.771a.8.8,0,1,0,0,1.59h4.771a.8.8,0,1,0,0-1.59Z" transform="translate(-180.018 -422)" fill="#ff4a57"/></g></g></svg>