<svg xmlns="http://www.w3.org/2000/svg" width="26.908" height="26.908" viewBox="0 0 26.908 26.908"><g transform="translate(0)"><g transform="translate(0)"><path d="M25.947,0H15.376A.961.961,0,0,0,14.7.282L.281,14.7a.961.961,0,0,0,0,1.359L10.852,26.626a.961.961,0,0,0,1.359,0L26.626,12.211a.961.961,0,0,0,.282-.679V.961A.961.961,0,0,0,25.947,0Zm-.961,11.134L11.532,24.588,2.319,15.376,15.773,1.922h9.212Z" transform="translate(0)" fill="#ff4a57"/></g><g transform="translate(17.298 3.844)"><path d="M310.079,68.267a2.883,2.883,0,1,0,2.883,2.883A2.883,2.883,0,0,0,310.079,68.267Zm0,3.844a.961.961,0,1,1,.961-.961A.961.961,0,0,1,310.079,72.111Z" transform="translate(-307.196 -68.267)" fill="#ff4a57"/></g></g></svg>