<svg xmlns="http://www.w3.org/2000/svg" width="54" height="47" viewBox="0 0 54 47"><g fill="none" stroke="#24263b" stroke-width="4"><rect width="54" height="47" stroke="none"/><rect x="2" y="2" width="50" height="43" fill="none"/></g><g transform="translate(345.598 211.789)"><g transform="translate(-337.127 -206.11)"><path d="M178.955,168.5a10.485,10.485,0,0,0-10.479,10.479,2.506,2.506,0,0,0,5.011,0,5.481,5.481,0,0,1,5.468-5.468,2.506,2.506,0,0,0,0-5.011Z" transform="translate(-158.351 -158.378)" fill="#24263b"/><path d="M35.442,6.955l-6.1-6.1a2.847,2.847,0,0,0-3.666-.3L20.552,4.223a2.767,2.767,0,0,1-1.775.525A13.394,13.394,0,0,0,4.722,18.8,2.861,2.861,0,0,1,4.2,20.578L.53,25.7a2.847,2.847,0,0,0,.3,3.666l6.1,6.1a2.847,2.847,0,0,0,3.666.3L15.744,32.1a2.817,2.817,0,0,1,1.76-.525A13.416,13.416,0,0,0,31.559,17.522a2.817,2.817,0,0,1,.525-1.76l3.666-5.148A2.838,2.838,0,0,0,35.442,6.955ZM18.137,26.391a8.228,8.228,0,1,1,8.228-8.228A8.225,8.225,0,0,1,18.137,26.391Z" transform="translate(0 -0.026)" fill="#24263b"/></g></g></svg>